<svg xmlns="http://www.w3.org/2000/svg" width="800" height="480" viewBox="0 0 800 480"><defs><radialGradient id="a" cx="50%" cy="33.201%" r="66.799%" fx="50%" fy="33.201%" gradientTransform="matrix(0 1 -.75062 0 .75 -.168)"><stop offset="0%" stop-color="#FFF" stop-opacity=".1"/><stop offset="100%" stop-color="#FFF" stop-opacity="0"/></radialGradient></defs><path fill="url(#a)" d="M80.5,0 L80.5,79.5 L159.5,79.5 L159.5,0 L160.5,0 L160.5,79.5 L239.5,79.5 L239.5,0 L240.5,0 L240.5,79.5 L319.5,79.5 L319.5,0 L320.5,0 L320.5,79.5 L399.5,79.5 L399.5,0 L400.5,0 L400.5,79.5 L479.5,79.5 L479.5,0 L480.5,0 L480.5,79.5 L559.5,79.5 L559.5,0 L560.5,0 L560.5,79.5 L639.5,79.5 L639.5,0 L640.5,0 L640.5,79.5 L719.5,79.5 L719.5,0 L720.5,0 L720.5,79.5 L800,79.5 L800,80.5 L720.5,80.5 L720.5,159.5 L800,159.5 L800,160.5 L720.5,160.5 L720.5,239.5 L800,239.5 L800,240.5 L720.5,240.5 L720.5,319.5 L800,319.5 L800,320.5 L720.5,320.5 L720.5,399.5 L800,399.5 L800,400.5 L720.5,400.5 L720.5,480 L719.5,480 L719.5,400.5 L640.5,400.5 L640.5,480 L639.5,480 L639.5,400.5 L560.5,400.5 L560.5,480 L559.5,480 L559.5,400.5 L480.5,400.5 L480.5,480 L479.5,480 L479.5,400.5 L400.5,400.5 L400.5,480 L399.5,480 L399.5,400.5 L320.5,400.5 L320.5,480 L319.5,480 L319.5,400.5 L240.5,400.5 L240.5,480 L239.5,480 L239.5,400.5 L160.5,400.5 L160.5,480 L159.5,480 L159.5,400.5 L80.5,400.5 L80.5,480 L79.5,480 L79.5,400.5 L0,400.5 L0,399.5 L79.5,399.5 L79.5,320.5 L0,320.5 L0,319.5 L79.5,319.5 L79.5,240.5 L0,240.5 L0,239.5 L79.5,239.5 L79.5,160.5 L0,160.5 L0,159.5 L79.5,159.5 L79.5,80.5 L0,80.5 L0,79.5 L79.5,79.5 L79.5,0 L80.5,0 Z M159.5,320.5 L80.5,320.5 L80.5,399.5 L159.5,399.5 L159.5,320.5 Z M239.5,320.5 L160.5,320.5 L160.5,399.5 L239.5,399.5 L239.5,320.5 Z M319.5,320.5 L240.5,320.5 L240.5,399.5 L319.5,399.5 L319.5,320.5 Z M399.5,320.5 L320.5,320.5 L320.5,399.5 L399.5,399.5 L399.5,320.5 Z M479.5,320.5 L400.5,320.5 L400.5,399.5 L479.5,399.5 L479.5,320.5 Z M559.5,320.5 L480.5,320.5 L480.5,399.5 L559.5,399.5 L559.5,320.5 Z M639.5,320.5 L560.5,320.5 L560.5,399.5 L639.5,399.5 L639.5,320.5 Z M719.5,320.5 L640.5,320.5 L640.5,399.5 L719.5,399.5 L719.5,320.5 Z M479.5,240.5 L400.5,240.5 L400.5,319.5 L479.5,319.5 L479.5,240.5 Z M159.5,240.5 L80.5,240.5 L80.5,319.5 L159.5,319.5 L159.5,240.5 Z M239.5,240.5 L160.5,240.5 L160.5,319.5 L239.5,319.5 L239.5,240.5 Z M319.5,240.5 L240.5,240.5 L240.5,319.5 L319.5,319.5 L319.5,240.5 Z M399.5,240.5 L320.5,240.5 L320.5,319.5 L399.5,319.5 L399.5,240.5 Z M559.5,240.5 L480.5,240.5 L480.5,319.5 L559.5,319.5 L559.5,240.5 Z M639.5,240.5 L560.5,240.5 L560.5,319.5 L639.5,319.5 L639.5,240.5 Z M719.5,240.5 L640.5,240.5 L640.5,319.5 L719.5,319.5 L719.5,240.5 Z M239.5,160.5 L160.5,160.5 L160.5,239.5 L239.5,239.5 L239.5,160.5 Z M159.5,160.5 L80.5,160.5 L80.5,239.5 L159.5,239.5 L159.5,160.5 Z M319.5,160.5 L240.5,160.5 L240.5,239.5 L319.5,239.5 L319.5,160.5 Z M399.5,160.5 L320.5,160.5 L320.5,239.5 L399.5,239.5 L399.5,160.5 Z M479.5,160.5 L400.5,160.5 L400.5,239.5 L479.5,239.5 L479.5,160.5 Z M559.5,160.5 L480.5,160.5 L480.5,239.5 L559.5,239.5 L559.5,160.5 Z M639.5,160.5 L560.5,160.5 L560.5,239.5 L639.5,239.5 L639.5,160.5 Z M719.5,160.5 L640.5,160.5 L640.5,239.5 L719.5,239.5 L719.5,160.5 Z M719.5,80.5 L640.5,80.5 L640.5,159.5 L719.5,159.5 L719.5,80.5 Z M639.5,80.5 L560.5,80.5 L560.5,159.5 L639.5,159.5 L639.5,80.5 Z M559.5,80.5 L480.5,80.5 L480.5,159.5 L559.5,159.5 L559.5,80.5 Z M479.5,80.5 L400.5,80.5 L400.5,159.5 L479.5,159.5 L479.5,80.5 Z M399.5,80.5 L320.5,80.5 L320.5,159.5 L399.5,159.5 L399.5,80.5 Z M319.5,80.5 L240.5,80.5 L240.5,159.5 L319.5,159.5 L319.5,80.5 Z M239.5,80.5 L160.5,80.5 L160.5,159.5 L239.5,159.5 L239.5,80.5 Z M159.5,80.5 L80.5,80.5 L80.5,159.5 L159.5,159.5 L159.5,80.5 Z"/></svg>