<svg xmlns="http://www.w3.org/2000/svg" width="800" height="210" viewBox="0 0 800 210"><g fill="none" fill-rule="evenodd"><g transform="translate(145)"><rect width="508.5" height="158.5" x=".75" y=".75" fill="#F97316" fill-opacity=".1" stroke="#F97316" stroke-width="1.5"/><path fill="#F97316" fill-opacity=".2" stroke="#F97316" stroke-dasharray="1 4" stroke-linecap="round" stroke-width="1.5" d="M150,40 L341,40 L341,140 L150,140 Z"/><text fill="#F97316" font-family="PingFangSC-Regular, PingFang SC" font-size="8">
                <tspan x="159" y="57">for (const node of figma.currentPage.selection)</tspan>
                <tspan x="159" y="68">{</tspan>
                <tspan x="159" y="79">    if (&quot;fill&quot; in node) {</tspan>
                <tspan x="159" y="90">      node.fill = “ ”</tspan>
                <tspan x="159" y="101">    }</tspan>
                <tspan x="159" y="112">}</tspan>
            </text><path fill="#F97316" fill-opacity=".2" stroke="#F97316" stroke-dasharray="1 4" stroke-linecap="round" stroke-width="1.5" d="M351,40 L491,40 L491,140 L351,140 Z"/><circle cx="378" cy="60" r="9.25" fill="#C59707" stroke="#FFF" stroke-width="1.5"/><text fill="#F97316" font-family="PingFangSC-Regular, PingFang SC" font-size="8">
                <tspan x="394" y="62">node.fill = “EAB308”</tspan>
            </text><text fill="#F97316" font-family="PingFangSC-Regular, PingFang SC" font-size="8">
                <tspan x="394" y="93">node.fill = “3B82F6”</tspan>
            </text><text fill="#F97316" font-family="PingFangSC-Regular, PingFang SC" font-size="8">
                <tspan x="394" y="123">node.fill = “EF4444”</tspan>
            </text><circle cx="378" cy="90" r="9.25" fill="#2876F5" stroke="#FFF" stroke-width="1.5"/><circle cx="378" cy="120" r="9.25" fill="#ED3030" stroke="#FFF" stroke-width="1.5"/><path fill="#F97316" fill-opacity=".2" stroke="#F97316" stroke-dasharray="1 4" stroke-linecap="round" stroke-width="1.5" d="M20,40 L140,40 L140,140 L20,140 Z"/><text fill="#FFF" font-family="PingFangSC-Regular, PingFang SC" font-size="12">
                <tspan x="20" y="30">Figma插件</tspan>
            </text><text fill="#FFF" font-family="PingFangSC-Regular, PingFang SC" font-size="10">
                <tspan x="45" y="103">遍历选中的对象</tspan>
            </text><text fill="#F97316" font-family="PingFangSC-Regular, PingFang SC" font-size="8">
                <tspan x="28.712" y="83">figma.currentPage.selection</tspan>
            </text><text fill="#FFF" font-family="PingFangSC-Regular, PingFang SC" font-size="10">
                <tspan x="193.5" y="128">获取每个图层的颜色属性</tspan>
            </text></g><text fill="#FFF" font-family="PingFangSC-Regular, PingFang SC" font-size="12">
            <tspan x="376" y="198">重新赋值</tspan>
        </text><g transform="translate(0 30)"><rect width="98.5" height="98.5" x=".75" y=".75" fill="#F97316" fill-opacity=".1" stroke="#F97316" stroke-width="1.5"/><text fill="#FFF" font-family="PingFangSC-Regular, PingFang SC" font-size="10">
                <tspan x="20" y="74">Figma设计稿</tspan>
            </text><path fill="#FFF" fill-rule="nonzero" d="M55.2317975,23 C57.644561,23 59.7832146,24.5675436 60.5302436,26.8834392 C61.2772727,29.1993348 60.4629558,31.7374624 58.5127995,33.1715696 C60.2278182,34.3665507 61.1693952,36.4036751 60.9747616,38.4980837 C60.780128,40.5924924 59.4796608,42.4173049 57.5744014,43.2694614 C55.6691419,44.1216178 53.4564495,43.8681197 51.7888257,42.6066342 L51.5168948,42.4056328 L51.5168948,47.1876656 C51.5165288,49.9286773 49.6192508,52.2969224 46.964062,52.8706619 C44.3088731,53.4444014 41.6174637,52.0676908 40.5055791,49.5670168 C39.3936945,47.0663428 40.1635492,44.1213978 42.352973,42.5001335 C40.873104,41.4057971 39.9992481,39.6644084 40.0006966,37.8126014 C40.0006966,35.9165884 40.899703,34.2320769 42.2920485,33.1715696 C40.3853488,31.7697108 39.5596086,29.3078357 40.2304287,27.0250233 C40.9012488,24.7422109 42.9232842,23.133073 45.2788303,23.0075001 L45.5715646,23 L55.2303115,23 L55.2317975,23 Z M49.2879532,43.6251412 L45.7587957,43.6251412 C43.8412918,43.6256303 42.2750162,45.1715744 42.2314413,47.1067078 C42.1878664,49.0418412 43.6829378,50.6580297 45.5984393,50.7464693 C47.5139407,50.8349089 49.148922,49.3632364 49.2805234,47.4321672 L49.2879532,47.1876656 L49.2879532,43.6251412 L49.2879532,43.6251412 Z M49.2879532,34.2500494 L45.7587957,34.2500494 C43.8515382,34.2425796 42.2834555,35.7660973 42.2179756,37.6902668 C42.1524957,39.6144364 43.6133129,41.2429865 45.516584,41.3676257 L45.7587957,41.3751258 L49.2879532,41.3751258 L49.2879532,34.2500494 Z M55.0460523,34.250077 C53.0969524,34.250077 51.5168948,35.8450735 51.5168948,37.8126014 C51.5168948,39.7801293 53.0969524,41.3751258 55.0460523,41.3751258 C56.9951521,41.3751258 58.5752097,39.7801293 58.5752097,37.8126014 C58.5752097,35.8450735 56.9951521,34.250077 55.0460523,34.250077 L55.0460523,34.250077 Z M49.2879532,25.2500154 L45.5730505,25.2500154 C43.7265349,25.2500154 42.2296382,26.7610647 42.2296382,28.6250385 C42.2296382,30.4890123 43.7265349,32.0000616 45.5730505,32.0000616 L49.2879532,32.0000616 L49.2879532,25.2500154 Z M55.2317975,25.2500154 L51.5168948,25.2500154 L51.5168948,32.0000616 L55.2317975,32.0000616 C57.0783131,32.0000616 58.5752098,30.4890123 58.5752098,28.6250385 C58.5752098,26.7610647 57.0783131,25.2500154 55.2317975,25.2500154 Z"/></g><g transform="translate(700 30)"><rect width="98.5" height="98.5" x=".75" y=".75" fill="#F97316" fill-opacity=".1" stroke="#F97316" stroke-width="1.5"/><text fill="#FFF" font-family="PingFangSC-Regular, PingFang SC" font-size="10">
                <tspan x="10" y="69">得到矫正后的颜色</tspan>
            </text><circle cx="20" cy="38" r="9.25" fill="#EAB308" stroke="#FFF" stroke-width="1.5"/><circle cx="50" cy="38" r="9.25" fill="#3B82F6" stroke="#FFF" stroke-width="1.5"/><circle cx="80" cy="38" r="9.25" fill="#EF4444" stroke="#FFF" stroke-width="1.5"/></g><path fill="#F97316" fill-rule="nonzero" d="M133.666667 74.25 145.666667 80 133.666667 85.75 133.666 80.75 100 80.75 100 79.25 133.666 79.25 133.666667 74.25ZM688.666667 74.25 700.666667 80 688.666667 85.75 688.666 80.75 655 80.75 655 79.25 688.666 79.25 688.666667 74.25ZM50 129.333333 55.75 141.333333 50.75 141.333 50.75 178.25 751.25 178.25 751.25 130 752.75 130 752.75 179.75 49.25 179.75 49.25 141.333 44.25 141.333333 50 129.333333Z"/></g></svg>