<svg xmlns="http://www.w3.org/2000/svg" width="362" height="100" viewBox="0 0 362 100"><g fill="none" fill-rule="evenodd"><rect width="176" height="100" x="186" fill="#FFF" rx="8"/><path fill="#44A6FF" fill-rule="nonzero" d="M278.958333,28.4285714 C280.915222,28.4285714 282.5,30.0285714 282.5,32 L282.5,53.4285714 C282.5,55.4 280.913333,57 278.958333,57 L260.541667,57 C258.585658,57 257,55.401017 257,53.4285714 L257,32 C257,30.0266667 258.586667,28.4285714 260.541667,28.4285714 L278.958333,28.4285714 Z M264.098444,47 C263.30093,47 262.666667,47.6395932 262.666667,48.4285714 C262.666667,49.2327877 263.30093,49.872381 264.083333,49.872381 C264.880848,49.872381 265.515111,49.2327877 265.515111,48.4438095 C265.515111,47.6395932 264.880848,47 264.098444,47 Z M279.666667,17 C281.782444,17 283.72211,18.1882169 284.696778,20.0819048 C285.12073,20.1107062 285.544481,20.142453 285.968,20.1771429 C288.875,20.4228571 291,22.9104762 291,25.7771429 L291,44.1428571 C291,47.29877 288.462947,49.8571429 285.333333,49.8571429 L285.333333,32 C285.333337,28.453314 282.484904,25.5766829 278.967778,25.5714286 L265.503778,25.5714286 C265.602,22.7942857 267.694889,20.4190476 270.532,20.1771429 C270.953222,20.1428571 271.378222,20.1104762 271.803222,20.0819048 C272.77789,18.1882169 274.717556,17 276.833333,17 L279.666667,17 Z M275.416667,47 L268.333333,47 C267.55093,47 266.916667,47.6395932 266.916667,48.4285714 C266.916667,49.2175496 267.55093,49.8571429 268.333333,49.8571429 L275.416667,49.8571429 C276.19907,49.8571429 276.833333,49.2175496 276.833333,48.4285714 C276.833333,47.6395932 276.19907,47 275.416667,47 Z M264.098444,41.2857143 C263.30093,41.2857143 262.666667,41.9253075 262.666667,42.7142857 C262.666667,43.518502 263.30093,44.1580952 264.083333,44.1580952 C264.880848,44.1580952 265.515111,43.518502 265.515111,42.7295238 C265.515111,41.9253075 264.880848,41.2857143 264.098444,41.2857143 Z M275.416667,41.2857143 L268.333333,41.2857143 C267.55093,41.2857143 266.916667,41.9253075 266.916667,42.7142857 C266.916667,43.5032639 267.55093,44.1428571 268.333333,44.1428571 L275.416667,44.1428571 C276.19907,44.1428571 276.833333,43.5032639 276.833333,42.7142857 C276.833333,41.9253075 276.19907,41.2857143 275.416667,41.2857143 Z M264.098444,35.5714286 C263.30093,35.5714286 262.666667,36.2110218 262.666667,37 C262.666667,37.8042163 263.30093,38.4438095 264.083333,38.4438095 C264.880848,38.4438095 265.515111,37.8042163 265.515111,37.0152381 C265.515111,36.2110218 264.880848,35.5714286 264.098444,35.5714286 Z M275.416667,35.5714286 L268.333333,35.5714286 C267.55093,35.5714286 266.916667,36.2110218 266.916667,37 C266.916667,37.7889782 267.55093,38.4285714 268.333333,38.4285714 L275.416667,38.4285714 C276.19907,38.4285714 276.833333,37.7889782 276.833333,37 C276.833333,36.2110218 276.19907,35.5714286 275.416667,35.5714286 Z M279.666667,19.8571429 L276.833333,19.8571429 C275.268527,19.8571429 274,21.1363293 274,22.7142857 L282.5,22.7142857 C282.5,21.1363293 281.231473,19.8571429 279.666667,19.8571429 Z M255.243243,77.9677419 C255.179054,81.2580645 253.574324,82.9354839 250.429054,83 C247.60473,82.9354839 246.128378,82.0645161 246,80.3870968 C246.128378,79.483871 246.545608,78.9677419 247.251689,78.8387097 C247.48277,78.8387097 247.869831,78.9693548 248.412872,79.2306452 L248.599662,79.3225806 C249.241554,79.6451613 249.755068,79.8064516 250.140203,79.8064516 L250.236486,79.8064516 C251.135135,79.8064516 251.584459,79.0967742 251.584459,77.6774194 L251.584459,67.0322581 C251.584459,65.8064516 252.194257,65.1612903 253.413851,65.0967742 C254.569257,65.1612903 255.179054,65.8064516 255.243243,67.0322581 L255.243243,77.9677419 Z M269.011824,77.483871 C268.755068,80.9677419 266.636824,82.8064516 262.657095,83 C258.741554,82.9354839 256.751689,82.0645161 256.6875,80.3870968 C256.751689,79.3548387 257.297297,78.7741935 258.324324,78.6451613 C258.837838,78.7096774 259.383446,78.8709677 259.961149,79.1290323 C260.988176,79.4516129 261.822635,79.6129032 262.464527,79.6129032 C264.069257,79.6129032 264.903716,78.9032258 264.967905,77.483871 C264.967905,76.743338 264.028244,76.091347 262.14892,75.527898 L261.886824,75.4516129 C258.484797,74.483871 256.783784,72.8709677 256.783784,70.6129032 C256.976351,67.1935484 258.998311,65.3225806 262.849662,65 C265.930743,65.1935484 267.535473,66 267.663851,67.4193548 C267.535473,68.6451613 266.989865,69.2580645 266.027027,69.2580645 C265.706081,69.2580645 265.256757,69.1935484 264.679054,69.0645161 C264.165541,68.8064516 263.523649,68.6451613 262.753378,68.5806452 C261.405405,68.6451613 260.731419,69.1612903 260.731419,70.1290323 C260.731419,70.8387097 261.662162,71.483871 263.523649,72.0645161 C267.182432,73.0967742 269.011824,74.9032258 269.011824,77.483871 Z M286.728041,74.0967742 C286.342905,79.7741935 283.518581,82.7419355 278.255068,83 C272.927365,82.7419355 270.103041,79.7741935 269.782095,74.0967742 C270.16723,68.483871 272.991554,65.4516129 278.255068,65 C283.454392,65.4516129 286.278716,68.483871 286.728041,74.0967742 Z M273.633446,74.0967742 C273.761824,77.7741935 275.302365,79.6129032 278.255068,79.6129032 C281.20777,79.6129032 282.780405,77.7741935 282.972973,74.0967742 C282.716216,70.483871 281.143581,68.5806452 278.255068,68.3870968 C275.302365,68.5806452 273.761824,70.483871 273.633446,74.0967742 Z M303,81.1612903 C302.935811,82.3225806 302.326014,82.9032258 301.170608,82.9032258 C300.528716,82.9032258 300.015203,82.6774194 299.630068,82.2258065 L291.831081,71.8709677 L291.734797,71.8709677 L291.734797,81.1612903 C291.670608,82.3225806 291.060811,82.9032258 289.905405,82.9032258 C288.685811,82.9032258 288.076014,82.3225806 288.076014,81.1612903 L288.076014,67.0322581 C288.076014,65.8064516 288.685811,65.1612903 289.905405,65.0967742 C290.547297,65.2258065 291.060811,65.516129 291.445946,65.9677419 L299.244932,76.4193548 L299.341216,76.4193548 L299.341216,67.0322581 C299.341216,65.8064516 299.951014,65.1612903 301.170608,65.0967742 C302.326014,65.1612903 302.935811,65.8064516 303,67.0322581 L303,81.1612903 Z"/><rect width="176" height="100" fill="#FFF" rx="6"/><rect width="20" height="20" x="104" y="25" fill="#F3D095"/><rect width="20" height="20" x="134" y="25" fill="#F3D095"/><rect width="20" height="20" x="104" y="56" fill="#F3D095"/><rect width="20" height="20" x="36" y="60" fill="#44A6FF"/><rect width="20" height="20" x="56" y="20" fill="#44A6FF"/></g></svg>