<svg xmlns="http://www.w3.org/2000/svg" xmlns:xlink="http://www.w3.org/1999/xlink" width="362" height="100" viewBox="0 0 362 100"><defs><polygon id="a" points="0 0 20.425 0 20.425 29.326 0 29.326"/><polygon id="c" points="0 0 4.261 0 4.261 6.923 0 6.923"/><polygon id="e" points="0 0 24.888 0 24.888 25.555 0 25.555"/><polygon id="g" points="0 0 24.888 0 24.888 25.555 0 25.555"/><polygon id="i" points="0 0 5.508 0 5.508 9.273 0 9.273"/></defs><g fill="none" fill-rule="evenodd" transform="translate(1 8)"><rect width="60" height="60" fill="#FFF" rx="5.25"/><g transform="rotate(15 -25.87 99.276)"><g transform="translate(0 6.434)"><mask id="b" fill="#fff"><use xlink:href="#a"/></mask><path fill="#7E3494" d="M1.7634965,7.28813476 L0.0478893833,18.106063 C-0.53885569,24.22133 4.33962492,29.4744615 10.4645455,29.3222862 C16.5898951,29.1701109 21.2030388,23.6811866 20.314768,17.6024933 L17.718042,6.89170448 C17.1287222,2.85884392 13.6297076,-0.0984628487 9.56554673,0.00250926281 C5.501815,0.103481374 2.15284806,3.23089173 1.7634965,7.28813476 Z" mask="url(#b)"/></g><g transform="translate(8.951)"><mask id="d" fill="#fff"><use xlink:href="#c"/></mask><path fill="#AECC00" d="M0.0108970584,5.81947888 C0.140204115,3.47933546 1.41525179,1.31747092 3.43023908,0.0804191235 C3.68713673,-0.0772063745 4.02299178,0.00382948207 4.1801914,0.261423108 C4.33753406,0.51872988 4.25686019,0.855638247 3.9998195,1.01340717 C2.15318886,2.14704861 1.03934588,4.19675378 1.09269935,6.36249084 C1.1002804,6.66497689 0.862120835,6.91525578 0.561024204,6.92271394 C0.259927573,6.93031554 0.00960970934,6.69151076 0.00217169281,6.38959841 C-0.00254858691,6.19869801 0.000455227455,6.00837131 0.0108970584,5.81947888" mask="url(#d)"/></g><path fill="#AECC00" d="M8.18899873,9.46550438 C8.21503179,10.5192574 8.62998729,11.4713211 9.29254291,12.1880223 C9.48092498,12.3918311 9.80862683,12.3836558 9.98656707,12.1708112 C10.6126478,11.4219825 10.9799714,10.4505562 10.9540814,9.39680319 C10.9279053,8.34319363 10.5129498,7.39112988 9.85082327,6.67428526 C9.6624412,6.47047649 9.33488239,6.47850837 9.15679911,6.69149641 C8.53043229,7.4403251 8.16296567,8.41189482 8.18899873,9.46550438"/><path fill="#AECC00" d="M6.43754609,5.62899442 C5.40151621,5.80813386 4.52225683,6.35817371 3.91148125,7.1196239 C3.73783217,7.33605418 3.79361729,7.65991076 4.02948824,7.80548845 C4.8592562,8.3179506 5.8713986,8.54112191 6.90742848,8.36198247 C7.94317228,8.18298645 8.82214558,7.63280319 9.43320725,6.87135299 C9.60699936,6.65492271 9.55135728,6.33106614 9.31534329,6.18534502 C8.48528926,5.67302629 7.47328989,5.44985498 6.43754609,5.62899442"/><path fill="#AECC00" d="M12.4324587,5.47604462 C11.3826971,5.41953466 10.4034536,5.75988526 9.63905435,6.36600478 C9.42177845,6.53840319 9.40432772,6.86641912 9.60186427,7.06104861 C10.2973188,7.74576574 11.2346519,8.18895299 12.2844135,8.24546295 C13.3338891,8.30182948 14.3128465,7.96162231 15.0775318,7.35550279 C15.2949507,7.18310438 15.3124015,6.85494502 15.1147219,6.66031554 C14.4191243,5.97559841 13.4819342,5.53241116 12.4324587,5.47604462"/><path stroke="#FFF" stroke-linecap="round" stroke-linejoin="round" stroke-width="1.207" d="M.133526701 7.38785976C.0931897648 7.44652112.0518515575 7.50417849.00951207883 7.56068845M.974923713-3.72093826e-15C1.396459 3.0741992 1.54049905 4.21587251 1.00109981 5.5685259L.974923713 5.63407171" transform="translate(17.126 22.291)"/></g><g transform="translate(75)"><rect width="60" height="60" fill="#FFF" rx="5.25"/><g transform="translate(12 13.634)"><g transform="translate(11.073 7.648)"><mask id="f" fill="#fff"><use xlink:href="#e"/></mask><path fill="#FFBB1C" d="M24.8707864,12.1474115 C25.2252994,19.1955328 19.9489574,25.1911122 13.0856712,25.5391377 C6.22238491,25.8871632 0.371381188,20.4556808 0.016868177,13.4075595 C-0.337644834,6.35957253 4.93869717,0.363858855 11.8019834,0.0158333408 C18.6651358,-0.332192173 24.5164072,5.09929018 24.8707864,12.1474115" mask="url(#f)"/></g><g transform="translate(0 7.755)"><mask id="h" fill="#fff"><use xlink:href="#g"/></mask><path fill="#FFBB1C" d="M24.8707807,12.1474115 C25.2252937,19.1955328 19.9489517,25.1911122 13.0856654,25.5391377 C6.22251301,25.8871632 0.371375465,20.4556808 0.0168624535,13.4075595 C-0.337650558,6.35957253 4.93869145,0.363858855 11.8019777,0.0158333408 C18.6652639,-0.332192173 24.5164015,5.09929018 24.8707807,12.1474115" mask="url(#h)"/></g><g transform="translate(15.451)"><mask id="j" fill="#fff"><use xlink:href="#i"/></mask><path fill="#4DAA1B" d="M0.075104244,8.74946892 C-0.416583488,4.39605942 1.63033101,1.34808153 2.59978826,0.210347158 C2.83693324,-0.0682076258 3.26264328,-0.0695513536 3.5068812,0.202822282 L5.35265071,2.26221959 C5.58203361,2.51806537 5.55379569,2.91016516 5.29242766,3.13308961 C4.42053175,3.8767086 2.72652432,5.68173823 2.92178082,8.35414418 C2.94453175,8.66481406 2.72558752,8.94148763 2.4195206,8.99228054 L0.77302246,9.26519167 C0.437513166,9.32068763 0.113513166,9.08889457 0.075104244,8.74946892" mask="url(#j)"/></g><path fill="#FFD000" d="M30.0098677,19.6021138 C30.3643807,26.6502351 25.0880387,32.6458144 18.2247524,32.9938399 C11.3614662,33.3418655 5.51046245,27.9103831 5.15594944,20.8622618 C4.80143643,13.8142748 10.0777784,7.81856113 16.9410647,7.47053562 C23.8042171,7.12251011 29.6554885,12.5539925 30.0098677,19.6021138"/><path fill="#FFF" d="M23.709252,12.544976 C23.7574305,13.5029196 23.0231108,14.3186968 22.0690439,14.367071 C21.114977,14.4154452 20.3025011,13.6781417 20.2543227,12.7201982 C20.2061442,11.7622546 20.9404639,10.9464774 21.8945309,10.8981032 C22.8485978,10.849729 23.6610736,11.5870325 23.709252,12.544976" opacity=".56"/></g></g><g transform="translate(150)"><rect width="60" height="60" fill="#FFF" rx="5.25"/><g transform="translate(11.755 12.026)"><path fill="#9AC75F" d="M13.5530388,34.7558391 C16.3613681,34.7558391 20.3656239,38.1622574 24.4380157,31.6100971 C25.5144021,27.9165634 26.546178,23.9106514 27.4964151,19.9875978 C29.6651302,17.7703061 30.7667828,14.2542469 28.4654129,11.6358687 C29.633618,8.45089669 28.0978351,2.55865493 26.3363199,1.53869158 C22.2214687,-0.843914879 19.0681526,-0.449437473 16.8763718,2.7221238 C12.788597,24.077934 11.6808193,34.7558391 13.5530388,34.7558391 Z"/><path fill="#D8EAE0" d="M18.7975283,34.9543582 C19.7448582,33.5488015 19.8661264,29.0408162 20.5043317,26.154842 C21.6365488,21.0349389 22.195782,13.9880619 22.1820314,5.0142111 L22.1820668,5.01421214 C22.1834017,4.96883851 22.2212664,4.933138 22.26664,4.93447284 C22.3052603,4.935609 22.3378754,4.9634911 22.3450039,5.00146485 C24.2997167,13.6207772 24.895542,20.6507498 24.1317188,26.0915257 C23.5620571,30.413538 23.580693,31.4811903 22.6784472,32.8606222 C21.2121088,33.5240467 20.3708807,35.2429246 18.7975283,34.9543582 Z" transform="rotate(1 21.626 19.636)"/><path fill="#BAE171" d="M9.74537901,0.97214423 C15.9097626,0.157326042 17.0284478,4.2800931 17.755399,8.22631339 C20.7787869,11.5750702 19.3595259,15.2568781 17.7682161,17.0506222 C19.5714602,17.7299329 19.9725433,21.0893493 18.2607057,23.3191347 C18.8226992,24.431515 21.9348719,31.6333343 18.6208801,34.1773652 C17.3318286,35.0110196 13.3619271,35.3813012 11.2877078,33.9530261 C9.93458276,33.0212854 7.33558987,27.6468089 6.79197748,22.4746826 C3.96663483,22.3186597 1.60627556,18.2417709 3.82757079,15.5603142 C0.992479239,14.2873275 1.06672824,9.04464649 3.82757079,8.02564902 C4.32620134,3.53764344 6.32216847,1.64177086 9.74537901,0.97214423 Z" transform="rotate(6 10.927 17.891)"/><path fill="#E5EFEA" d="M10.20309,9.05593383 C9.3610506,15.3055578 9.06133917,20.0041778 9.30395571,23.1517936 C9.68758107,28.1288047 9.04305278,31.8043131 11.5339061,34.7852687 C12.3806809,35.1847702 15.6520012,36.4765812 15.4397805,35.5272805 C15.0845888,33.9384443 13.629253,28.933395 13.0224283,24.2925159 C12.6360022,21.3372035 11.8042686,16.2579885 10.5272275,9.05487111 L10.5279098,9.05475971 C10.5132832,8.96515918 10.4287904,8.90438081 10.3391899,8.91900744 C10.2690298,8.93046056 10.2141813,8.98571544 10.2032465,9.05595819 Z"/><path stroke="#979797" stroke-width=".5" d="M18.5300416,34.295823"/><line x1="9.607" x2="7.877" y1="18.634" y2="14.092" stroke="#E5EFEA" stroke-linecap="round" stroke-width="1.151"/><line x1="12.171" x2="14.718" y1="19.139" y2="15.623" stroke="#E5EFEA" stroke-linecap="round" stroke-width="1.151"/><line x1="24.019" x2="25.514" y1="15.103" y2="10.362" stroke="#D8EAE0" stroke-linecap="round" stroke-width="1.151"/><line x1="19.86" x2="22.447" y1="12.639" y2="14.637" stroke="#D8EAE0" stroke-linecap="round" stroke-width="1.151"/><line x1="19.541" x2="22.351" y1="18.686" y2="21.743" stroke="#D8EAE0" stroke-linecap="round" stroke-width="1.151"/><line x1="24.019" x2="26.581" y1="22.017" y2="17.522" stroke="#D8EAE0" stroke-linecap="round" stroke-width="1.151"/><line x1="12.375" x2="14.923" y1="25.533" y2="22.017" stroke="#E5EFEA" stroke-linecap="round" stroke-width="1.151"/><line x1="10.345" x2="7.818" y1="25.237" y2="21.356" stroke="#E5EFEA" stroke-linecap="round" stroke-width="1.151"/></g></g><path stroke="#394DEC" stroke-dasharray="3.488 4.186" stroke-linecap="round" stroke-linejoin="round" stroke-width="2.093" d="M5.58139535,0 L52.3255814,0 C55.4081009,-5.66249652e-16 57.9069767,2.49887581 57.9069767,5.58139535 L57.9069767,52.3255814 C57.9069767,55.4081009 55.4081009,57.9069767 52.3255814,57.9069767 L5.58139535,57.9069767 C2.49887581,57.9069767 2.70788392e-15,55.4081009 0,52.3255814 L0,5.58139535 C-3.77499768e-16,2.49887581 2.49887581,-1.21010719e-15 5.58139535,0 Z" transform="rotate(90 141.453 142.5)"/><path stroke="#394DEC" stroke-dasharray="3.488 4.186" stroke-linecap="round" stroke-linejoin="round" stroke-width="2.093" d="M5.58139535,0 L52.3255814,0 C55.4081009,-5.66249652e-16 57.9069767,2.49887581 57.9069767,5.58139535 L57.9069767,52.3255814 C57.9069767,55.4081009 55.4081009,57.9069767 52.3255814,57.9069767 L5.58139535,57.9069767 C2.49887581,57.9069767 2.70788392e-15,55.4081009 0,52.3255814 L0,5.58139535 C-3.77499768e-16,2.49887581 2.49887581,-1.21010719e-15 5.58139535,0 Z" transform="rotate(90 178.953 180)"/><path fill="#FFF" fill-rule="nonzero" d="M10.172 73.566C9.08 73.566 8.198 73.93 7.54 74.658 6.882 75.372 6.56 76.282 6.56 77.388 6.56 78.48 6.882 79.39 7.526 80.09 8.198 80.818 9.08 81.196 10.172 81.196 11.264 81.196 12.146 80.818 12.818 80.09 13.462 79.39 13.784 78.48 13.784 77.388 13.784 76.282 13.448 75.372 12.804 74.658 12.146 73.93 11.264 73.566 10.172 73.566ZM10.172 74.784C10.858 74.784 11.39 75.05 11.782 75.596 12.118 76.058 12.286 76.66 12.286 77.388 12.286 78.102 12.118 78.69 11.782 79.166 11.39 79.698 10.858 79.978 10.172 79.978 9.486 79.978 8.954 79.698 8.576 79.166 8.24 78.704 8.086 78.116 8.086 77.388 8.086 76.66 8.24 76.058 8.576 75.596 8.954 75.05 9.486 74.784 10.172 74.784ZM18.824 73.566C17.844 73.566 17.088 73.916 16.584 74.63L16.584 73.762 15.198 73.762 15.198 83.772 16.682 83.772 16.682 79.936C17.27 80.776 17.998 81.196 18.894 81.196 19.93 81.196 20.756 80.818 21.344 80.062 21.89 79.362 22.17 78.48 22.17 77.416 22.17 76.296 21.89 75.4 21.33 74.7 20.714 73.944 19.888 73.566 18.824 73.566ZM18.6 74.77C19.328 74.77 19.86 75.022 20.21 75.554 20.49 76.002 20.644 76.618 20.644 77.416 20.644 78.214 20.476 78.83 20.168 79.278 19.818 79.754 19.286 79.992 18.558 79.992 17.998 79.992 17.55 79.768 17.214 79.334 16.822 78.858 16.64 78.228 16.64 77.458L16.64 77.332C16.64 76.59 16.794 75.988 17.102 75.54 17.452 75.022 17.956 74.77 18.6 74.77ZM25.768 71.424 24.284 72.04 24.284 73.762 22.94 73.762 22.94 74.994 24.284 74.994 24.284 79.194C24.284 79.768 24.41 80.202 24.69 80.51 24.97 80.832 25.432 81 26.048 81L27.238 81 27.238 79.768 26.286 79.768C26.104 79.768 25.978 79.712 25.894 79.628 25.81 79.53 25.768 79.39 25.768 79.194L25.768 74.994 27.42 74.994 27.42 73.762 25.768 73.762 25.768 71.424ZM29.66 70.864C29.366 70.864 29.128 70.948 28.932 71.144 28.736 71.326 28.638 71.564 28.638 71.858 28.638 72.138 28.736 72.39 28.932 72.586 29.128 72.768 29.366 72.866 29.66 72.866 29.94 72.866 30.192 72.768 30.388 72.586 30.584 72.39 30.696 72.152 30.696 71.858 30.696 71.564 30.598 71.326 30.402 71.144 30.206 70.948 29.954 70.864 29.66 70.864ZM28.918 73.762 28.918 81 30.402 81 30.402 73.762 28.918 73.762ZM35.736 73.566C34.644 73.566 33.762 73.93 33.104 74.658 32.446 75.372 32.124 76.282 32.124 77.388 32.124 78.48 32.446 79.39 33.09 80.09 33.762 80.818 34.644 81.196 35.736 81.196 36.828 81.196 37.71 80.818 38.382 80.09 39.026 79.39 39.348 78.48 39.348 77.388 39.348 76.282 39.012 75.372 38.368 74.658 37.71 73.93 36.828 73.566 35.736 73.566ZM35.736 74.784C36.422 74.784 36.954 75.05 37.346 75.596 37.682 76.058 37.85 76.66 37.85 77.388 37.85 78.102 37.682 78.69 37.346 79.166 36.954 79.698 36.422 79.978 35.736 79.978 35.05 79.978 34.518 79.698 34.14 79.166 33.804 78.704 33.65 78.116 33.65 77.388 33.65 76.66 33.804 76.058 34.14 75.596 34.518 75.05 35.05 74.784 35.736 74.784ZM44.43 73.566C43.982 73.566 43.576 73.65 43.212 73.846 42.848 74.028 42.526 74.294 42.246 74.658L42.246 73.762 40.762 73.762 40.762 81 42.246 81 42.246 76.646C42.302 76.058 42.512 75.596 42.848 75.26 43.156 74.952 43.534 74.812 43.954 74.812 45.074 74.812 45.648 75.428 45.648 76.66L45.648 81 47.132 81 47.132 76.534C47.132 74.546 46.222 73.566 44.43 73.566ZM51.234 71.004C50.898 71.368 50.478 71.69 49.974 71.998 49.47 72.278 49.008 72.474 48.56 72.586L48.56 74.098C49.484 73.832 50.254 73.412 50.856 72.838L50.856 81 52.382 81 52.382 71.004 51.234 71.004ZM83.172 73.566C82.08 73.566 81.198 73.93 80.54 74.658 79.882 75.372 79.56 76.282 79.56 77.388 79.56 78.48 79.882 79.39 80.526 80.09 81.198 80.818 82.08 81.196 83.172 81.196 84.264 81.196 85.146 80.818 85.818 80.09 86.462 79.39 86.784 78.48 86.784 77.388 86.784 76.282 86.448 75.372 85.804 74.658 85.146 73.93 84.264 73.566 83.172 73.566ZM83.172 74.784C83.858 74.784 84.39 75.05 84.782 75.596 85.118 76.058 85.286 76.66 85.286 77.388 85.286 78.102 85.118 78.69 84.782 79.166 84.39 79.698 83.858 79.978 83.172 79.978 82.486 79.978 81.954 79.698 81.576 79.166 81.24 78.704 81.086 78.116 81.086 77.388 81.086 76.66 81.24 76.058 81.576 75.596 81.954 75.05 82.486 74.784 83.172 74.784ZM91.824 73.566C90.844 73.566 90.088 73.916 89.584 74.63L89.584 73.762 88.198 73.762 88.198 83.772 89.682 83.772 89.682 79.936C90.27 80.776 90.998 81.196 91.894 81.196 92.93 81.196 93.756 80.818 94.344 80.062 94.89 79.362 95.17 78.48 95.17 77.416 95.17 76.296 94.89 75.4 94.33 74.7 93.714 73.944 92.888 73.566 91.824 73.566ZM91.6 74.77C92.328 74.77 92.86 75.022 93.21 75.554 93.49 76.002 93.644 76.618 93.644 77.416 93.644 78.214 93.476 78.83 93.168 79.278 92.818 79.754 92.286 79.992 91.558 79.992 90.998 79.992 90.55 79.768 90.214 79.334 89.822 78.858 89.64 78.228 89.64 77.458L89.64 77.332C89.64 76.59 89.794 75.988 90.102 75.54 90.452 75.022 90.956 74.77 91.6 74.77ZM98.768 71.424 97.284 72.04 97.284 73.762 95.94 73.762 95.94 74.994 97.284 74.994 97.284 79.194C97.284 79.768 97.41 80.202 97.69 80.51 97.97 80.832 98.432 81 99.048 81L100.238 81 100.238 79.768 99.286 79.768C99.104 79.768 98.978 79.712 98.894 79.628 98.81 79.53 98.768 79.39 98.768 79.194L98.768 74.994 100.42 74.994 100.42 73.762 98.768 73.762 98.768 71.424ZM102.66 70.864C102.366 70.864 102.128 70.948 101.932 71.144 101.736 71.326 101.638 71.564 101.638 71.858 101.638 72.138 101.736 72.39 101.932 72.586 102.128 72.768 102.366 72.866 102.66 72.866 102.94 72.866 103.192 72.768 103.388 72.586 103.584 72.39 103.696 72.152 103.696 71.858 103.696 71.564 103.598 71.326 103.402 71.144 103.206 70.948 102.954 70.864 102.66 70.864ZM101.918 73.762 101.918 81 103.402 81 103.402 73.762 101.918 73.762ZM108.736 73.566C107.644 73.566 106.762 73.93 106.104 74.658 105.446 75.372 105.124 76.282 105.124 77.388 105.124 78.48 105.446 79.39 106.09 80.09 106.762 80.818 107.644 81.196 108.736 81.196 109.828 81.196 110.71 80.818 111.382 80.09 112.026 79.39 112.348 78.48 112.348 77.388 112.348 76.282 112.012 75.372 111.368 74.658 110.71 73.93 109.828 73.566 108.736 73.566ZM108.736 74.784C109.422 74.784 109.954 75.05 110.346 75.596 110.682 76.058 110.85 76.66 110.85 77.388 110.85 78.102 110.682 78.69 110.346 79.166 109.954 79.698 109.422 79.978 108.736 79.978 108.05 79.978 107.518 79.698 107.14 79.166 106.804 78.704 106.65 78.116 106.65 77.388 106.65 76.66 106.804 76.058 107.14 75.596 107.518 75.05 108.05 74.784 108.736 74.784ZM117.43 73.566C116.982 73.566 116.576 73.65 116.212 73.846 115.848 74.028 115.526 74.294 115.246 74.658L115.246 73.762 113.762 73.762 113.762 81 115.246 81 115.246 76.646C115.302 76.058 115.512 75.596 115.848 75.26 116.156 74.952 116.534 74.812 116.954 74.812 118.074 74.812 118.648 75.428 118.648 76.66L118.648 81 120.132 81 120.132 76.534C120.132 74.546 119.222 73.566 117.43 73.566ZM125.34 70.808C124.276 70.808 123.408 71.158 122.764 71.886 122.134 72.558 121.812 73.454 121.798 74.574L123.324 74.574C123.352 73.762 123.52 73.16 123.856 72.74 124.178 72.306 124.654 72.096 125.284 72.096 125.872 72.096 126.334 72.236 126.642 72.516 126.95 72.796 127.104 73.216 127.104 73.776 127.104 74.364 126.866 74.91 126.418 75.414 126.138 75.708 125.662 76.086 124.99 76.562 123.856 77.346 123.1 77.948 122.736 78.382 122.064 79.138 121.742 80.006 121.742 81L128.63 81 128.63 79.656 123.632 79.656C123.842 79.11 124.486 78.48 125.564 77.766 126.558 77.094 127.244 76.562 127.636 76.156 128.28 75.442 128.616 74.658 128.616 73.79 128.616 72.908 128.308 72.194 127.706 71.634 127.09 71.074 126.292 70.808 125.34 70.808ZM159.172 73.566C158.08 73.566 157.198 73.93 156.54 74.658 155.882 75.372 155.56 76.282 155.56 77.388 155.56 78.48 155.882 79.39 156.526 80.09 157.198 80.818 158.08 81.196 159.172 81.196 160.264 81.196 161.146 80.818 161.818 80.09 162.462 79.39 162.784 78.48 162.784 77.388 162.784 76.282 162.448 75.372 161.804 74.658 161.146 73.93 160.264 73.566 159.172 73.566ZM159.172 74.784C159.858 74.784 160.39 75.05 160.782 75.596 161.118 76.058 161.286 76.66 161.286 77.388 161.286 78.102 161.118 78.69 160.782 79.166 160.39 79.698 159.858 79.978 159.172 79.978 158.486 79.978 157.954 79.698 157.576 79.166 157.24 78.704 157.086 78.116 157.086 77.388 157.086 76.66 157.24 76.058 157.576 75.596 157.954 75.05 158.486 74.784 159.172 74.784ZM167.824 73.566C166.844 73.566 166.088 73.916 165.584 74.63L165.584 73.762 164.198 73.762 164.198 83.772 165.682 83.772 165.682 79.936C166.27 80.776 166.998 81.196 167.894 81.196 168.93 81.196 169.756 80.818 170.344 80.062 170.89 79.362 171.17 78.48 171.17 77.416 171.17 76.296 170.89 75.4 170.33 74.7 169.714 73.944 168.888 73.566 167.824 73.566ZM167.6 74.77C168.328 74.77 168.86 75.022 169.21 75.554 169.49 76.002 169.644 76.618 169.644 77.416 169.644 78.214 169.476 78.83 169.168 79.278 168.818 79.754 168.286 79.992 167.558 79.992 166.998 79.992 166.55 79.768 166.214 79.334 165.822 78.858 165.64 78.228 165.64 77.458L165.64 77.332C165.64 76.59 165.794 75.988 166.102 75.54 166.452 75.022 166.956 74.77 167.6 74.77ZM174.768 71.424 173.284 72.04 173.284 73.762 171.94 73.762 171.94 74.994 173.284 74.994 173.284 79.194C173.284 79.768 173.41 80.202 173.69 80.51 173.97 80.832 174.432 81 175.048 81L176.238 81 176.238 79.768 175.286 79.768C175.104 79.768 174.978 79.712 174.894 79.628 174.81 79.53 174.768 79.39 174.768 79.194L174.768 74.994 176.42 74.994 176.42 73.762 174.768 73.762 174.768 71.424ZM178.66 70.864C178.366 70.864 178.128 70.948 177.932 71.144 177.736 71.326 177.638 71.564 177.638 71.858 177.638 72.138 177.736 72.39 177.932 72.586 178.128 72.768 178.366 72.866 178.66 72.866 178.94 72.866 179.192 72.768 179.388 72.586 179.584 72.39 179.696 72.152 179.696 71.858 179.696 71.564 179.598 71.326 179.402 71.144 179.206 70.948 178.954 70.864 178.66 70.864ZM177.918 73.762 177.918 81 179.402 81 179.402 73.762 177.918 73.762ZM184.736 73.566C183.644 73.566 182.762 73.93 182.104 74.658 181.446 75.372 181.124 76.282 181.124 77.388 181.124 78.48 181.446 79.39 182.09 80.09 182.762 80.818 183.644 81.196 184.736 81.196 185.828 81.196 186.71 80.818 187.382 80.09 188.026 79.39 188.348 78.48 188.348 77.388 188.348 76.282 188.012 75.372 187.368 74.658 186.71 73.93 185.828 73.566 184.736 73.566ZM184.736 74.784C185.422 74.784 185.954 75.05 186.346 75.596 186.682 76.058 186.85 76.66 186.85 77.388 186.85 78.102 186.682 78.69 186.346 79.166 185.954 79.698 185.422 79.978 184.736 79.978 184.05 79.978 183.518 79.698 183.14 79.166 182.804 78.704 182.65 78.116 182.65 77.388 182.65 76.66 182.804 76.058 183.14 75.596 183.518 75.05 184.05 74.784 184.736 74.784ZM193.43 73.566C192.982 73.566 192.576 73.65 192.212 73.846 191.848 74.028 191.526 74.294 191.246 74.658L191.246 73.762 189.762 73.762 189.762 81 191.246 81 191.246 76.646C191.302 76.058 191.512 75.596 191.848 75.26 192.156 74.952 192.534 74.812 192.954 74.812 194.074 74.812 194.648 75.428 194.648 76.66L194.648 81 196.132 81 196.132 76.534C196.132 74.546 195.222 73.566 193.43 73.566ZM201.284 70.808C200.304 70.808 199.506 71.074 198.89 71.634 198.232 72.194 197.868 72.964 197.784 73.958L199.282 73.958C199.338 73.342 199.548 72.88 199.884 72.572 200.22 72.264 200.696 72.11 201.298 72.11 201.886 72.11 202.348 72.236 202.656 72.516 202.936 72.782 203.09 73.16 203.09 73.664 203.09 74.168 202.922 74.56 202.614 74.826 202.306 75.092 201.844 75.232 201.228 75.232L200.514 75.232 200.514 76.38 201.242 76.38C201.9 76.38 202.404 76.52 202.74 76.8 203.104 77.08 203.286 77.514 203.286 78.102 203.286 78.606 203.104 79.012 202.768 79.348 202.376 79.712 201.858 79.908 201.214 79.908 200.626 79.908 200.15 79.74 199.786 79.404 199.366 79.04 199.156 78.522 199.128 77.85L197.588 77.85C197.672 78.97 198.064 79.824 198.764 80.412 199.38 80.93 200.206 81.196 201.228 81.196 202.292 81.196 203.174 80.888 203.846 80.3 204.476 79.712 204.798 78.956 204.798 78.032 204.798 77.444 204.63 76.954 204.294 76.576 203.986 76.212 203.538 75.932 202.95 75.75 204.042 75.386 204.602 74.644 204.602 73.552 204.602 72.698 204.294 72.026 203.706 71.536 203.09 71.046 202.292 70.808 201.284 70.808ZM235.06 72.566C233.94 72.566 233.072 72.944 232.442 73.7 231.854 74.4 231.56 75.296 231.56 76.388 231.56 77.508 231.854 78.404 232.456 79.104 233.072 79.832 233.926 80.196 235.032 80.196 235.956 80.196 236.712 79.958 237.272 79.496 237.832 79.02 238.21 78.292 238.378 77.326L236.908 77.326C236.768 78.418 236.152 78.978 235.046 78.978 234.402 78.978 233.926 78.74 233.604 78.292 233.254 77.83 233.086 77.186 233.086 76.374 233.086 75.562 233.254 74.918 233.618 74.47 233.968 74.008 234.444 73.784 235.06 73.784 235.564 73.784 235.97 73.896 236.278 74.134 236.586 74.358 236.782 74.722 236.88 75.212L238.35 75.212C238.21 74.316 237.846 73.644 237.286 73.196 236.726 72.776 235.984 72.566 235.06 72.566ZM242.984 72.566C241.892 72.566 241.01 72.93 240.352 73.658 239.694 74.372 239.372 75.282 239.372 76.388 239.372 77.48 239.694 78.39 240.338 79.09 241.01 79.818 241.892 80.196 242.984 80.196 244.076 80.196 244.958 79.818 245.63 79.09 246.274 78.39 246.596 77.48 246.596 76.388 246.596 75.282 246.26 74.372 245.616 73.658 244.958 72.93 244.076 72.566 242.984 72.566ZM242.984 73.784C243.67 73.784 244.202 74.05 244.594 74.596 244.93 75.058 245.098 75.66 245.098 76.388 245.098 77.102 244.93 77.69 244.594 78.166 244.202 78.698 243.67 78.978 242.984 78.978 242.298 78.978 241.766 78.698 241.388 78.166 241.052 77.704 240.898 77.116 240.898 76.388 240.898 75.66 241.052 75.058 241.388 74.596 241.766 74.05 242.298 73.784 242.984 73.784ZM248.178 69.808 248.178 80 249.662 80 249.662 69.808 248.178 69.808ZM251.678 69.808 251.678 80 253.162 80 253.162 69.808 251.678 69.808ZM256.06 69.864C255.766 69.864 255.528 69.948 255.332 70.144 255.136 70.326 255.038 70.564 255.038 70.858 255.038 71.138 255.136 71.39 255.332 71.586 255.528 71.768 255.766 71.866 256.06 71.866 256.34 71.866 256.592 71.768 256.788 71.586 256.984 71.39 257.096 71.152 257.096 70.858 257.096 70.564 256.998 70.326 256.802 70.144 256.606 69.948 256.354 69.864 256.06 69.864ZM255.318 72.762 255.318 80 256.802 80 256.802 72.762 255.318 72.762ZM264.012 69.808 264.012 73.84C263.424 72.986 262.682 72.566 261.8 72.566 260.764 72.566 259.938 72.944 259.35 73.7 258.79 74.4 258.524 75.282 258.524 76.346 258.524 77.452 258.804 78.362 259.364 79.062 259.966 79.818 260.806 80.196 261.87 80.196 262.85 80.196 263.606 79.832 264.11 79.132L264.11 80 265.496 80 265.496 69.808 264.012 69.808ZM262.136 73.77C262.682 73.77 263.13 73.98 263.494 74.428 263.858 74.904 264.054 75.534 264.054 76.318L264.054 76.444C264.054 77.172 263.9 77.76 263.592 78.222 263.228 78.726 262.738 78.992 262.094 78.992 261.366 78.992 260.82 78.726 260.484 78.208 260.19 77.76 260.05 77.144 260.05 76.346 260.05 75.548 260.204 74.932 260.512 74.512 260.862 74.008 261.408 73.77 262.136 73.77ZM270.242 72.566C269.178 72.566 268.324 72.93 267.708 73.672 267.064 74.4 266.756 75.296 266.756 76.374 266.756 77.564 267.092 78.502 267.764 79.202 268.38 79.86 269.234 80.196 270.298 80.196 271.264 80.196 272.062 79.916 272.692 79.37 273.196 78.922 273.518 78.348 273.686 77.676L272.202 77.676C272.006 78.096 271.796 78.418 271.544 78.614 271.222 78.852 270.802 78.978 270.284 78.978 269.696 78.978 269.234 78.782 268.898 78.418 268.562 78.04 268.38 77.494 268.324 76.794L273.812 76.794C273.798 75.506 273.504 74.498 272.944 73.77 272.328 72.958 271.418 72.566 270.242 72.566ZM270.284 73.784C271.46 73.784 272.118 74.414 272.258 75.674L268.352 75.674C268.436 75.058 268.646 74.596 268.954 74.274 269.29 73.938 269.724 73.784 270.284 73.784ZM277.48 70.004C277.144 70.368 276.724 70.69 276.22 70.998 275.716 71.278 275.254 71.474 274.806 71.586L274.806 73.098C275.73 72.832 276.5 72.412 277.102 71.838L277.102 80 278.628 80 278.628 70.004 277.48 70.004ZM309.06 72.566C307.94 72.566 307.072 72.944 306.442 73.7 305.854 74.4 305.56 75.296 305.56 76.388 305.56 77.508 305.854 78.404 306.456 79.104 307.072 79.832 307.926 80.196 309.032 80.196 309.956 80.196 310.712 79.958 311.272 79.496 311.832 79.02 312.21 78.292 312.378 77.326L310.908 77.326C310.768 78.418 310.152 78.978 309.046 78.978 308.402 78.978 307.926 78.74 307.604 78.292 307.254 77.83 307.086 77.186 307.086 76.374 307.086 75.562 307.254 74.918 307.618 74.47 307.968 74.008 308.444 73.784 309.06 73.784 309.564 73.784 309.97 73.896 310.278 74.134 310.586 74.358 310.782 74.722 310.88 75.212L312.35 75.212C312.21 74.316 311.846 73.644 311.286 73.196 310.726 72.776 309.984 72.566 309.06 72.566ZM316.984 72.566C315.892 72.566 315.01 72.93 314.352 73.658 313.694 74.372 313.372 75.282 313.372 76.388 313.372 77.48 313.694 78.39 314.338 79.09 315.01 79.818 315.892 80.196 316.984 80.196 318.076 80.196 318.958 79.818 319.63 79.09 320.274 78.39 320.596 77.48 320.596 76.388 320.596 75.282 320.26 74.372 319.616 73.658 318.958 72.93 318.076 72.566 316.984 72.566ZM316.984 73.784C317.67 73.784 318.202 74.05 318.594 74.596 318.93 75.058 319.098 75.66 319.098 76.388 319.098 77.102 318.93 77.69 318.594 78.166 318.202 78.698 317.67 78.978 316.984 78.978 316.298 78.978 315.766 78.698 315.388 78.166 315.052 77.704 314.898 77.116 314.898 76.388 314.898 75.66 315.052 75.058 315.388 74.596 315.766 74.05 316.298 73.784 316.984 73.784ZM322.178 69.808 322.178 80 323.662 80 323.662 69.808 322.178 69.808ZM325.678 69.808 325.678 80 327.162 80 327.162 69.808 325.678 69.808ZM330.06 69.864C329.766 69.864 329.528 69.948 329.332 70.144 329.136 70.326 329.038 70.564 329.038 70.858 329.038 71.138 329.136 71.39 329.332 71.586 329.528 71.768 329.766 71.866 330.06 71.866 330.34 71.866 330.592 71.768 330.788 71.586 330.984 71.39 331.096 71.152 331.096 70.858 331.096 70.564 330.998 70.326 330.802 70.144 330.606 69.948 330.354 69.864 330.06 69.864ZM329.318 72.762 329.318 80 330.802 80 330.802 72.762 329.318 72.762ZM338.012 69.808 338.012 73.84C337.424 72.986 336.682 72.566 335.8 72.566 334.764 72.566 333.938 72.944 333.35 73.7 332.79 74.4 332.524 75.282 332.524 76.346 332.524 77.452 332.804 78.362 333.364 79.062 333.966 79.818 334.806 80.196 335.87 80.196 336.85 80.196 337.606 79.832 338.11 79.132L338.11 80 339.496 80 339.496 69.808 338.012 69.808ZM336.136 73.77C336.682 73.77 337.13 73.98 337.494 74.428 337.858 74.904 338.054 75.534 338.054 76.318L338.054 76.444C338.054 77.172 337.9 77.76 337.592 78.222 337.228 78.726 336.738 78.992 336.094 78.992 335.366 78.992 334.82 78.726 334.484 78.208 334.19 77.76 334.05 77.144 334.05 76.346 334.05 75.548 334.204 74.932 334.512 74.512 334.862 74.008 335.408 73.77 336.136 73.77ZM344.242 72.566C343.178 72.566 342.324 72.93 341.708 73.672 341.064 74.4 340.756 75.296 340.756 76.374 340.756 77.564 341.092 78.502 341.764 79.202 342.38 79.86 343.234 80.196 344.298 80.196 345.264 80.196 346.062 79.916 346.692 79.37 347.196 78.922 347.518 78.348 347.686 77.676L346.202 77.676C346.006 78.096 345.796 78.418 345.544 78.614 345.222 78.852 344.802 78.978 344.284 78.978 343.696 78.978 343.234 78.782 342.898 78.418 342.562 78.04 342.38 77.494 342.324 76.794L347.812 76.794C347.798 75.506 347.504 74.498 346.944 73.77 346.328 72.958 345.418 72.566 344.242 72.566ZM344.284 73.784C345.46 73.784 346.118 74.414 346.258 75.674L342.352 75.674C342.436 75.058 342.646 74.596 342.954 74.274 343.29 73.938 343.724 73.784 344.284 73.784ZM352.586 69.808C351.522 69.808 350.654 70.158 350.01 70.886 349.38 71.558 349.058 72.454 349.044 73.574L350.57 73.574C350.598 72.762 350.766 72.16 351.102 71.74 351.424 71.306 351.9 71.096 352.53 71.096 353.118 71.096 353.58 71.236 353.888 71.516 354.196 71.796 354.35 72.216 354.35 72.776 354.35 73.364 354.112 73.91 353.664 74.414 353.384 74.708 352.908 75.086 352.236 75.562 351.102 76.346 350.346 76.948 349.982 77.382 349.31 78.138 348.988 79.006 348.988 80L355.876 80 355.876 78.656 350.878 78.656C351.088 78.11 351.732 77.48 352.81 76.766 353.804 76.094 354.49 75.562 354.882 75.156 355.526 74.442 355.862 73.658 355.862 72.79 355.862 71.908 355.554 71.194 354.952 70.634 354.336 70.074 353.538 69.808 352.586 69.808Z"/></g></svg>