<svg xmlns="http://www.w3.org/2000/svg" width="362" height="100" viewBox="0 0 362 100"><defs><linearGradient id="a" x1="43.302%" x2="43.302%" y1="0%" y2="100%"><stop offset="0%" stop-color="#CCC"/><stop offset="100%" stop-color="#FFF"/></linearGradient><linearGradient id="b" x1="43.302%" x2="43.302%" y1="0%" y2="100%"><stop offset="0%" stop-color="#CCC"/><stop offset="100%" stop-color="#FFF"/></linearGradient></defs><g fill="none" fill-rule="evenodd"><path fill="url(#a)" fill-rule="nonzero" d="M172.342574,19 L172.342574,26.3069307 L165,26.3069307 L165,29.6574257 L172.342574,29.6574257 L172.342574,37 L175.693069,37 L175.693069,29.6574257 L183,29.6574257 L183,26.3069307 L175.693069,26.3069307 L175.693069,19 L172.342574,19 Z M46.3398792,70.3496042 L20,70.3496042 L20,58.4168865 L46.3398792,27 L58.9418429,27 L58.9418429,59.0936675 L65.473565,59.0936675 L65.473565,70.3496042 L58.9418429,70.3496042 L58.9418429,80.1094987 L46.3398792,80.1094987 L46.3398792,70.3496042 Z M46.3398792,59.0936675 L46.3398792,42.6728232 L32.4244713,59.0936675 L46.3398792,59.0936675 Z M69.9818731,53.7862797 C69.9818731,43.8601583 71.762714,36.914248 75.3243958,32.9485488 C78.8860775,28.9828496 84.31143,27 91.6004532,27 C95.1029708,27 97.9783484,27.4333773 100.226586,28.3001319 C102.474824,29.1668865 104.308912,30.2948549 105.728852,31.6840369 C107.148792,33.073219 108.266994,34.5336412 109.083459,36.0653034 C109.899924,37.5969657 110.556647,39.383905 111.053625,41.4261214 C112.023917,45.3205805 112.509063,49.3812665 112.509063,53.6081794 C112.509063,63.0831135 110.911631,70.0171504 107.716767,74.4102902 C104.521903,78.8034301 99.0196375,81 91.2099698,81 C86.8318228,81 83.2938066,80.2994723 80.5959215,78.8984169 C77.8980363,77.4973615 75.6852971,75.4432718 73.9577039,72.7361478 C72.703424,70.8126649 71.7272155,68.1827177 71.0290785,64.8463061 C70.3309416,61.5098945 69.9818731,57.823219 69.9818731,53.7862797 Z M84.3245669,53.2631592 L84.3232628,53.8218997 C84.3232628,60.4709763 84.9089879,65.012533 86.0804381,67.4465699 C87.2518882,69.8806069 88.9498993,71.0976253 91.1744713,71.0976253 C92.6417422,71.0976253 93.9137714,70.5811346 94.9905589,69.548153 C96.0673464,68.5151715 96.860146,66.8825858 97.3689577,64.6503958 C97.8777694,62.4182058 98.1321752,58.939314 98.1321752,54.2137203 L98.1273077,53.1377678 C98.0688974,46.795425 97.4847949,42.4937856 96.375,40.2328496 C95.2035498,37.8463061 93.4463746,36.6530343 91.1034743,36.6530343 C88.7132427,36.6530343 86.9856495,37.8700528 85.9206949,40.3040897 C84.8861675,42.6685827 84.3541248,46.9882726 84.3245669,53.2631592 L84.3245669,53.2631592 Z M118.47281,53.7862797 C118.47281,43.8601583 120.253651,36.914248 123.815332,32.9485488 C127.377014,28.9828496 132.802367,27 140.09139,27 C143.593907,27 146.469285,27.4333773 148.717523,28.3001319 C150.96576,29.1668865 152.799849,30.2948549 154.219789,31.6840369 C155.639728,33.073219 156.757931,34.5336412 157.574396,36.0653034 C158.390861,37.5969657 159.047583,39.383905 159.544562,41.4261214 C160.514854,45.3205805 161,49.3812665 161,53.6081794 C161,63.0831135 159.402568,70.0171504 156.207704,74.4102902 C153.01284,78.8034301 147.510574,81 139.700906,81 C135.322759,81 131.784743,80.2994723 129.086858,78.8984169 C126.388973,77.4973615 124.176234,75.4432718 122.44864,72.7361478 C121.194361,70.8126649 120.218152,68.1827177 119.520015,64.8463061 C118.821878,61.5098945 118.47281,57.823219 118.47281,53.7862797 Z M132.815503,53.2631592 L132.814199,53.8218997 C132.814199,60.4709763 133.399924,65.012533 134.571375,67.4465699 C135.742825,69.8806069 137.440836,71.0976253 139.665408,71.0976253 C141.132679,71.0976253 142.404708,70.5811346 143.481495,69.548153 C144.558283,68.5151715 145.351083,66.8825858 145.859894,64.6503958 C146.368706,62.4182058 146.623112,58.939314 146.623112,54.2137203 L146.618244,53.1377678 C146.559834,46.795425 145.975731,42.4937856 144.865937,40.2328496 C143.694486,37.8463061 141.937311,36.6530343 139.594411,36.6530343 C137.204179,36.6530343 135.476586,37.8700528 134.411631,40.3040897 C133.377104,42.6685827 132.845061,46.9882726 132.815503,53.2631592 L132.815503,53.2631592 Z"/><path fill="url(#b)" fill-rule="nonzero" d="M326.342574,19 L326.342574,26.3069307 L319,26.3069307 L319,29.6574257 L326.342574,29.6574257 L326.342574,37 L329.693069,37 L329.693069,29.6574257 L337,29.6574257 L337,26.3069307 L329.693069,26.3069307 L329.693069,19 L326.342574,19 Z M229.487408,27.8905013 L263.956219,27.8905013 L263.956219,39.4670185 L240.608679,39.4670185 L239.3611,47.3034301 C240.977011,46.5435356 242.5751,45.9736148 244.155366,45.5936675 C245.735632,45.2137203 247.298076,45.0237467 248.842697,45.0237467 C254.070644,45.0237467 258.312411,46.6029024 261.567997,49.7612137 C264.823583,52.9195251 266.451375,56.8970976 266.451375,61.6939314 C266.451375,65.0659631 265.613716,68.3073879 263.938396,71.4182058 C262.263076,74.5290237 259.886736,76.9036939 256.809376,78.5422164 C253.732016,80.1807388 249.793233,81 244.993026,81 C241.547333,81 238.594731,80.6734828 236.135219,80.0204485 C233.675707,79.3674142 231.584528,78.3937995 229.861682,77.0996042 C228.138835,75.805409 226.742735,74.3390501 225.673382,72.7005277 C224.604029,71.0620053 223.712902,69.0197889 223,66.5738786 L237.685781,64.9709763 C238.042232,67.3218997 238.873951,69.1088391 240.180938,70.3317942 C241.487925,71.5547493 243.044427,72.1662269 244.850446,72.1662269 C246.870334,72.1662269 248.539713,71.4003958 249.858582,69.8687335 C251.177451,68.3370712 251.836885,66.0514512 251.836885,63.0118734 C251.836885,59.9010554 251.17151,57.621372 249.840759,56.1728232 C248.510009,54.7242744 246.739636,54 244.52964,54 C243.127599,54 241.773085,54.3443272 240.466098,55.0329815 C239.491799,55.5316623 238.422446,56.4340369 237.25804,57.7401055 L224.88919,55.9591029 L229.487408,27.8905013 Z M272.297172,53.7862797 C272.297172,43.8601583 274.085367,36.914248 277.661759,32.9485488 C281.238151,28.9828496 286.68591,27 294.005037,27 C297.52202,27 300.409273,27.4333773 302.666796,28.3001319 C304.924319,29.1668865 306.765982,30.2948549 308.191786,31.6840369 C309.61759,33.073219 310.740411,34.5336412 311.560248,36.0653034 C312.380085,37.5969657 313.03952,39.383905 313.538551,41.4261214 C314.51285,45.3205805 315,49.3812665 315,53.6081794 C315,63.0831135 313.395971,70.0171504 310.187912,74.4102902 C306.979853,78.8034301 301.454862,81 293.612941,81 C289.216712,81 285.664084,80.2994723 282.955056,78.8984169 C280.246029,77.4973615 278.024151,75.4432718 276.289423,72.7361478 C275.029963,70.8126649 274.049722,68.1827177 273.348702,64.8463061 C272.647682,61.5098945 272.297172,57.823219 272.297172,53.7862797 Z M286.697792,53.8218997 L286.703237,54.9105651 C286.764956,60.969089 287.351285,65.1477573 288.462224,67.4465699 C289.638512,69.8806069 291.343536,71.0976253 293.577296,71.0976253 C295.050626,71.0976253 296.327909,70.5811346 297.409144,69.548153 C298.490378,68.5151715 299.286452,66.8825858 299.797365,64.6503958 C300.308278,62.4182058 300.563735,58.939314 300.563735,54.2137203 C300.563735,47.2796834 299.975591,42.6193931 298.799303,40.2328496 C297.623014,37.8463061 295.858582,36.6530343 293.506005,36.6530343 C291.105902,36.6530343 289.371174,37.8700528 288.301821,40.3040897 C287.232468,42.7381266 286.697792,47.2440633 286.697792,53.8218997 Z"/></g></svg>